<svg xmlns="http://www.w3.org/2000/svg" viewBox="0 0 31.07 31.07"><defs><style>.cls-1{fill-rule:evenodd;}</style></defs><title>Asset 2</title><g id="Layer_2" data-name="Layer 2"><g id="FOOTER"><path d="M15.53,0a15.53,15.53,0,1,1-11,4.55A15.48,15.48,0,0,1,15.53,0ZM25.67,5.41a14.34,14.34,0,1,0,4.19,10.12A14.31,14.31,0,0,0,25.67,5.41Z"/><path class="cls-1" d="M16.72,12.36V11.09a.67.67,0,0,1,.7-.76H19.2V7.61H16.75a3.08,3.08,0,0,0-3.34,3.32v1.43H11.83v3.17h1.6v7.93H16.6V15.53h2.35l.1-1.25.19-1.93Z"/></g></g></svg>