<svg xmlns="http://www.w3.org/2000/svg" viewBox="0 0 31.07 31.07"><defs><style>.cls-1{fill-rule:evenodd;}</style></defs><title>Asset 3</title><g id="Layer_2" data-name="Layer 2"><g id="FOOTER"><path d="M15.53,0a15.53,15.53,0,1,1-11,4.55A15.46,15.46,0,0,1,15.53,0ZM25.67,5.41a14.34,14.34,0,1,0,4.19,10.12A14.31,14.31,0,0,0,25.67,5.41Z"/><path class="cls-1" d="M11.56,15.53a4,4,0,1,1,4,4,4,4,0,0,1-4-4Zm8.09-7.78H11.43a3.69,3.69,0,0,0-3.68,3.68v8.21a3.7,3.7,0,0,0,3.68,3.68h8.21a3.69,3.69,0,0,0,3.68-3.68V11.43a3.69,3.69,0,0,0-3.68-3.68Zm-8.21.92h8.21a2.76,2.76,0,0,1,2.76,2.76v8.21a2.76,2.76,0,0,1-2.76,2.76H11.43a2.76,2.76,0,0,1-2.76-2.76V11.43a2.76,2.76,0,0,1,2.76-2.76Zm9,1.16a.81.81,0,1,0,.81.81.81.81,0,0,0-.81-.81Zm.09,5.7a5,5,0,1,0-5,5,5,5,0,0,0,5-5Z"/></g></g></svg>