<svg xmlns="http://www.w3.org/2000/svg" viewBox="0 0 31.07 31.07"><defs><style>.cls-1{fill-rule:evenodd;}</style></defs><title>Asset 5</title><g id="Layer_2" data-name="Layer 2"><g id="FOOTER"><path d="M15.53,0a15.53,15.53,0,1,1-11,4.55A15.46,15.46,0,0,1,15.53,0ZM25.67,5.41a14.33,14.33,0,1,0,4.19,10.12A14.27,14.27,0,0,0,25.67,5.41Z"/><path class="cls-1" d="M15.91,7.61c-4.46,0-6.72,3.09-6.72,5.68a5,5,0,0,0,.17,1.37,3,3,0,0,0,1.75,2.12.31.31,0,0,0,.46-.22c.05-.16.15-.56.2-.73a.42.42,0,0,0-.13-.51,2.46,2.46,0,0,1-.52-.95,3.12,3.12,0,0,1-.11-.84,4.39,4.39,0,0,1,4.64-4.36c2.52,0,3.91,1.49,3.91,3.48a8.17,8.17,0,0,1-.17,1.69c-.4,1.83-1.43,3.16-2.81,3.16a1.42,1.42,0,0,1-1.49-1.75c.14-.54.34-1.11.51-1.66a5.84,5.84,0,0,0,.34-1.57,1.23,1.23,0,0,0-1.28-1.37c-1,0-1.81,1-1.81,2.36a3.71,3.71,0,0,0,.06.67,3.32,3.32,0,0,0,.24.77s-1,4.22-1.2,5a9.8,9.8,0,0,0,0,3.46c0,.1.15.13.22.05a9.63,9.63,0,0,0,1.7-3c.1-.41.66-2.51.66-2.51a2.68,2.68,0,0,0,2.3,1.14c2.45,0,4.27-1.78,4.87-4.37a8.25,8.25,0,0,0,.21-1.87c0-2.71-2.37-5.21-6-5.21Z"/></g></g></svg>