<svg xmlns="http://www.w3.org/2000/svg" viewBox="0 0 31.07 31.08"><defs><style>.cls-1{fill-rule:evenodd;}</style></defs><title>Asset 4</title><g id="Layer_2" data-name="Layer 2"><g id="FOOTER"><path d="M15.53,0a15.53,15.53,0,1,1-11,4.55A15.51,15.51,0,0,1,15.53,0ZM25.66,5.41a14.32,14.32,0,1,0,4.2,10.13,14.27,14.27,0,0,0-4.2-10.13Z"/><path class="cls-1" d="M23.46,10.7a6.93,6.93,0,0,1-1.87.51A3.21,3.21,0,0,0,23,9.43a6.63,6.63,0,0,1-2.07.78,3.27,3.27,0,0,0-5.63,2.18,3.35,3.35,0,0,0,.09.73A9.24,9.24,0,0,1,8.71,9.78a3.16,3.16,0,0,0,1,4.27,3.15,3.15,0,0,1-1.47-.4v0a3,3,0,0,0,.22,1.15,3.25,3.25,0,0,0,2.39,2A3.2,3.2,0,0,1,10,17a2.91,2.91,0,0,1-.61-.07,3.28,3.28,0,0,0,3,2.24,6.58,6.58,0,0,1-4,1.37c-.27,0-.52,0-.78,0a9.39,9.39,0,0,0,5,1.44,9.05,9.05,0,0,0,9-7.17,8.8,8.8,0,0,0,.22-1.94v-.41a6.73,6.73,0,0,0,1.62-1.66Z"/></g></g></svg>