<svg xmlns="http://www.w3.org/2000/svg" xmlns:xlink="http://www.w3.org/1999/xlink" viewBox="0 0 34.53 61.81"><defs><style>.cls-1{fill:none;}.cls-2{fill:#002e4d;}.cls-3{fill:url(#Nouvelle_nuance_de_motif_4);}</style><pattern id="Nouvelle_nuance_de_motif_4" data-name="Nouvelle nuance de motif 4" width="79" height="83" patternTransform="translate(766.04 815.85) scale(0.81)" patternUnits="userSpaceOnUse" viewBox="0 0 79 83"><rect class="cls-1" width="79" height="83"/><rect class="cls-2" width="79" height="83"/></pattern></defs><title>Asset 4</title><g id="Layer_2" data-name="Layer 2"><g id="FOOTER"><path d="M34.21,23.43a.12.12,0,0,0,0,.14"/><path d="M18.55,27.71m-4.38-.21a.15.15,0,0,0,.13.21"/><path d="M9.37,47.95v.67"/><path class="cls-3" d="M33.39,19.73C24.7,24.49,17.24,38,14.31,49.72V31c4.74-1,8.26-3.3,10.43-6.71,3-4.67,3.4-11.44,1.24-20.11l-.23-.91-.84.41c-1,.49-1.89,1-2.74,1.5a19.47,19.47,0,0,0-5-5L16.8,0l-.4.24A12.2,12.2,0,0,0,14,2.29,10.7,10.7,0,0,0,11,.2L10.7.05l-.32.17a15.27,15.27,0,0,0-5,4.66A25,25,0,0,0,2.05,3.67l-.77-.22-.17.78C-.81,13.11-.24,20,2.83,24.63,5,27.89,8.34,30,12.8,31V61.81h1.51V56.08l0,0c10.17-5.28,20-22.61,20.16-35.66l0-1.3Zm-9.92,3.79c-1.9,3-5,5-9.16,6,0-13.65.74-19,10.43-24C26.54,13.31,26.12,19.37,23.47,23.51ZM16.78,1.81A17.92,17.92,0,0,1,20.91,6a16,16,0,0,0-6.42,7.81,15.07,15.07,0,0,0-2.9-4.6A16.41,16.41,0,0,1,16.78,1.81Zm-6-.07A9.85,9.85,0,0,1,13,3.45a19.57,19.57,0,0,0-2.6,4.61A18.08,18.08,0,0,0,6.79,5.53,14.1,14.1,0,0,1,10.76,1.74ZM4.09,23.8C1.35,19.63.78,13.43,2.42,5.35,8.51,7.26,12.4,11,13.69,16.24l0,.21c-.79,3.49-.92,7.7-.93,13A13.84,13.84,0,0,1,4.09,23.8ZM15,54c1.89-11.65,9.19-26.5,18-32.22C32.17,33.58,23.88,48.38,15,54Z"/></g></g></svg>